<?xml version="1.0" standalone="no"?>
<!DOCTYPE svg PUBLIC "-//W3C//DTD SVG 20010904//EN"
 "http://www.w3.org/TR/2001/REC-SVG-20010904/DTD/svg10.dtd">
<svg version="1.0" xmlns="http://www.w3.org/2000/svg"
 width="137.000000pt" height="133.000000pt" viewBox="0 0 137.000000 133.000000"
 preserveAspectRatio="xMidYMid meet">

<g transform="translate(0.000000,133.000000) scale(0.100000,-0.100000)"
fill="#000000" stroke="none">
<path d="M600 1211 c-88 -32 -140 -71 -189 -142 l-28 -43 32 -33 c32 -33 32
-33 129 -33 l96 0 0 90 0 90 80 0 80 0 0 -90 0 -90 100 0 100 0 0 -80 0 -80
-100 0 -100 0 0 -90 0 -90 -80 0 -80 0 0 90 0 90 -71 0 c-58 0 -70 -3 -66 -14
3 -8 11 -34 17 -58 11 -45 57 -145 76 -165 14 -15 80 -33 121 -33 48 0 140 27
187 54 171 101 227 312 127 476 -82 134 -283 205 -431 151z"/>
<path d="M1112 860 c0 -14 2 -19 5 -12 2 6 2 18 0 25 -3 6 -5 1 -5 -13z"/>
<path d="M1130 829 c0 -5 -6 -7 -12 -3 -7 4 -10 4 -6 -1 4 -4 1 -17 -7 -27 -7
-11 -11 -27 -8 -34 3 -8 0 -14 -6 -14 -6 0 -11 -8 -11 -17 0 -14 3 -13 16 5 8
12 13 26 9 32 -3 5 4 14 15 20 11 6 18 15 15 21 -4 5 -1 9 4 9 6 0 11 5 11 10
0 6 -4 10 -10 10 -5 0 -10 -5 -10 -11z"/>
<path d="M1132 758 c7 -15 15 -23 17 -17 2 6 -4 18 -13 27 -15 15 -15 15 -4
-10z"/>
<path d="M1120 721 c0 -7 -5 -9 -12 -5 -7 5 -8 3 -3 -5 5 -9 10 -10 18 -2 6 6
8 14 4 18 -4 3 -7 1 -7 -6z"/>
<path d="M1037 665 c-12 -17 -14 -26 -5 -31 6 -4 8 -3 5 3 -4 6 0 16 7 22 9 8
16 8 20 2 4 -5 15 -8 26 -6 22 4 26 -4 10 -23 -5 -7 -2 -6 7 2 13 12 14 18 4
30 -8 9 -17 14 -21 11 -5 -3 -11 -1 -15 5 -9 15 -18 12 -38 -15z"/>
<path d="M1058 633 c7 -3 16 -2 19 1 4 3 -2 6 -13 5 -11 0 -14 -3 -6 -6z"/>
<path d="M1007 619 c7 -7 15 -10 18 -7 3 3 -2 9 -12 12 -14 6 -15 5 -6 -5z"/>
<path d="M1065 590 c-4 -6 -10 -8 -15 -5 -4 3 -13 -2 -20 -10 -7 -8 -16 -13
-20 -10 -5 3 -12 1 -15 -5 -4 -6 -1 -9 7 -8 7 2 12 -3 10 -11 -3 -12 0 -12 12
-1 9 7 16 19 16 26 0 7 6 11 14 8 7 -3 16 2 19 10 7 18 2 21 -8 6z"/>
<path d="M941 549 c12 -24 11 -32 -4 -26 -8 3 -13 -3 -14 -17 0 -11 1 -15 4
-8 3 6 9 10 14 6 5 -3 9 0 9 6 0 6 5 8 12 4 6 -4 8 -3 4 4 -3 6 -2 13 4 17 5
3 10 1 10 -4 0 -6 5 -11 11 -11 8 0 7 5 -1 15 -7 9 -19 14 -27 11 -7 -3 -13
-1 -13 3 0 5 6 11 13 14 6 3 2 4 -10 4 -17 -1 -20 -5 -12 -18z"/>
<path d="M905 549 c-4 -6 -5 -12 -2 -15 2 -3 7 2 10 11 7 17 1 20 -8 4z"/>
<path d="M867 533 c-11 -10 -8 -20 7 -26 10 -4 12 0 9 14 -6 21 -7 22 -16 12z"/>
<path d="M745 500 c-3 -5 -2 -10 4 -10 5 0 13 5 16 10 3 6 2 10 -4 10 -5 0
-13 -4 -16 -10z"/>
<path d="M840 495 c7 -9 15 -13 17 -11 7 7 -7 26 -19 26 -6 0 -6 -6 2 -15z"/>
<path d="M121 288 c1 -31 1 -31 8 -8 l7 25 8 -22 c8 -25 22 -30 29 -10 4 10 6
10 6 0 2 -27 16 -11 16 17 0 35 -8 38 -28 10 l-14 -21 -6 21 c-8 32 -27 23
-26 -12z"/>
<path d="M212 293 c3 -24 8 -28 33 -28 25 0 30 4 33 28 2 15 -1 27 -7 27 -6 0
-11 -11 -11 -25 0 -16 -6 -25 -15 -25 -9 0 -15 9 -15 25 0 14 -5 25 -11 25 -6
0 -9 -12 -7 -27z"/>
<path d="M290 290 c0 -30 14 -40 24 -17 5 10 7 10 12 0 3 -7 13 -13 21 -13 14
0 14 2 0 18 -13 14 -14 21 -5 30 7 7 8 12 2 12 -5 0 -15 -5 -22 -12 -9 -9 -12
-9 -12 0 0 7 -4 12 -10 12 -5 0 -10 -13 -10 -30z"/>
<path d="M400 290 c0 -16 5 -30 10 -30 6 0 10 14 10 30 0 17 -4 30 -10 30 -5
0 -10 -13 -10 -30z"/>
<path d="M430 290 c0 -16 5 -30 10 -30 6 0 10 10 10 23 0 18 2 19 10 7 5 -8
10 -10 10 -4 0 12 -20 34 -32 34 -4 0 -8 -13 -8 -30z"/>
<path d="M480 306 c0 -8 -3 -21 -6 -30 -4 -11 -1 -16 10 -16 10 0 16 9 16 25
0 16 6 25 15 25 9 0 15 -9 15 -25 0 -14 5 -25 10 -25 6 0 10 11 10 24 0 13 6
27 13 29 6 3 -9 6 -35 6 -35 1 -48 -3 -48 -13z"/>
<path d="M580 290 c0 -27 3 -30 33 -29 30 1 31 1 7 9 -17 5 -19 8 -7 9 9 1 17
6 17 11 0 6 -8 10 -17 11 -15 0 -15 2 2 9 18 8 17 9 -7 9 -25 1 -28 -3 -28
-29z"/>
<path d="M650 288 c0 -18 4 -28 8 -23 4 6 15 15 26 20 26 15 22 29 -9 33 -22
3 -25 0 -25 -30z m37 16 c-3 -3 -12 -4 -19 -1 -8 3 -5 6 6 6 11 1 17 -2 13 -5z"/>
<path d="M720 291 c0 -17 5 -31 10 -31 6 0 10 9 10 20 0 11 0 23 1 27 0 4 -4
9 -10 11 -6 2 -11 -10 -11 -27z"/>
<path d="M771 307 c0 -10 -5 -15 -11 -12 -16 10 -12 -11 5 -25 20 -17 23 -12
14 25 -4 17 -7 22 -8 12z"/>
<path d="M810 294 c-6 -14 -10 -26 -10 -27 0 -1 15 -2 34 -3 33 0 33 0 24 28
-12 35 -35 36 -48 2z m34 1 c3 -8 1 -15 -4 -15 -6 0 -10 7 -10 15 0 8 2 15 4
15 2 0 6 -7 10 -15z"/>
<path d="M878 313 c6 -2 12 -16 12 -29 0 -13 5 -24 10 -24 6 0 10 11 10 25 0
16 6 25 15 25 9 0 15 -9 15 -25 0 -14 5 -25 10 -25 6 0 10 14 10 30 0 29 -1
30 -47 29 -27 0 -42 -3 -35 -6z"/>
<path d="M974 305 c-10 -25 4 -45 29 -45 34 0 54 25 37 45 -7 8 -23 15 -37 15
-13 0 -26 -7 -29 -15z m51 -15 c0 -8 -8 -16 -17 -18 -13 -2 -18 3 -18 18 0 15
5 20 18 18 9 -2 17 -10 17 -18z"/>
<path d="M1061 288 c1 -26 3 -28 6 -9 l5 23 14 -21 c22 -30 34 -26 33 12 -1
23 -3 26 -6 10 -5 -28 -20 -30 -28 -3 -10 31 -25 23 -24 -12z"/>
<path d="M1153 308 c-25 -33 -22 -44 13 -44 19 1 34 2 34 3 0 1 -4 13 -10 27
-10 29 -22 33 -37 14z m14 -20 c-3 -8 -6 -5 -6 6 -1 11 2 17 5 13 3 -3 4 -12
1 -19z"/>
<path d="M1221 293 c-1 -28 2 -33 22 -32 15 1 17 3 5 6 -9 2 -19 16 -21 31 -4
24 -4 24 -6 -5z"/>
<path d="M690 270 c0 -5 5 -10 10 -10 6 0 10 5 10 10 0 6 -4 10 -10 10 -5 0
-10 -4 -10 -10z"/>
<path d="M555 186 c17 -12 18 -16 5 -32 -13 -18 -13 -18 5 -2 15 14 16 20 5
32 -7 9 -17 16 -23 16 -6 0 -2 -6 8 -14z"/>
<path d="M595 191 c-6 -11 13 -26 22 -17 4 3 1 6 -6 6 -7 0 -9 5 -6 10 3 6 4
10 1 10 -3 0 -7 -4 -11 -9z"/>
<path d="M666 192 c-3 -5 6 -7 19 -4 15 2 25 0 25 -7 0 -6 -11 -11 -25 -11
-14 0 -25 -4 -25 -9 0 -5 12 -6 28 -2 15 4 27 14 27 22 0 16 -40 25 -49 11z"/>
<path d="M732 170 c0 -19 2 -27 5 -17 2 9 2 25 0 35 -3 9 -5 1 -5 -18z"/>
<path d="M767 190 c15 -6 21 -15 18 -30 -2 -11 1 -20 7 -20 5 0 8 7 4 15 -3 8
2 21 10 30 14 13 12 15 -23 14 -32 0 -35 -2 -16 -9z"/>
<path d="M860 193 c5 -2 10 -13 10 -23 0 -10 4 -21 9 -24 5 -4 6 5 2 21 -4 15
-13 28 -19 29 -7 1 -8 0 -2 -3z"/>
<path d="M912 180 c0 -14 2 -19 5 -12 2 6 2 18 0 25 -3 6 -5 1 -5 -13z"/>
<path d="M433 175 c0 -8 4 -12 9 -9 5 3 6 10 3 15 -9 13 -12 11 -12 -6z"/>
<path d="M827 160 c-3 -11 -2 -20 3 -20 12 0 21 28 11 35 -5 2 -11 -4 -14 -15z"/>
<path d="M516 157 c3 -10 9 -15 12 -12 3 3 0 11 -7 18 -10 9 -11 8 -5 -6z"/>
</g>
</svg>
